<?xml version="1.0" encoding="utf-8"?>
<!-- Generator: Adobe Illustrator 16.0.0, SVG Export Plug-In . SVG Version: 6.00 Build 0)  -->
<!DOCTYPE svg PUBLIC "-//W3C//DTD SVG 1.1//EN" "http://www.w3.org/Graphics/SVG/1.1/DTD/svg11.dtd">
<svg version="1.1" id="Layer_1" xmlns="http://www.w3.org/2000/svg" x="0px" y="0px" width="100px" height="100px" viewBox="0 0 100 100">
	<path id="icon-journal" d="M37.861,8.196c0,0,1.347,11.386-1.811,23.646c-4.324,16.815-8.541,21.653-8.541,21.653c13.793,12.243,20.553,35.549,20.553,35.549s-2.236,1.241-1.388,3.104c0.476,1.045,1.854,1.355,2.757,1.447v-40.1c-2.027-0.281-3.594-2.002-3.594-4.104c0-2.3,1.865-4.164,4.164-4.164s4.163,1.864,4.163,4.164c0,2.104-1.565,3.824-3.593,4.104v40.1c0.902-0.092,2.279-0.404,2.757-1.447c0.851-1.864-1.388-3.104-1.388-3.104S58.7,65.738,72.492,53.495c0,0-4.215-4.838-8.542-21.653c-3.153-12.26-1.808-23.646-1.808-23.646S57.12,6.185,49.692,6.428C44.145,6.612,41.281,7.001,37.861,8.196z"/>
</svg>
