<?xml version="1.0" encoding="utf-8"?>
<!DOCTYPE svg PUBLIC "-//W3C//DTD SVG 1.1//EN" "http://www.w3.org/Graphics/SVG/1.1/DTD/svg11.dtd">
<svg version="1.1" id="Your_Icon" xmlns="http://www.w3.org/2000/svg" xmlns:xlink="http://www.w3.org/1999/xlink" x="0px" y="0px"
	 width="100px" height="100px" viewBox="0 0 100 100" enable-background="new 0 0 100 100" xml:space="preserve">
<g id="lab-icon">
	<path d="M50.276,87.529L50.276,87.529l-0.405-0.002l-0.367,0.002c-3.375,0-20.428-0.362-25.485-7.504
		c-0.461-0.539-1.815-2.782,0.169-9.068c0.924-2.927,3.905-10.654,7.061-18.837c3.627-9.402,7.731-20.042,8.486-22.901V17.884
		c-0.088-0.35-0.419-1.547-0.984-2.354c-0.327-0.467-1.007-1.438-0.559-2.3c0.263-0.504,0.776-0.759,1.526-0.759h20.564
		c0.75,0,1.263,0.255,1.524,0.759c0.448,0.861-0.23,1.833-0.559,2.3c-0.564,0.807-0.896,2.004-0.982,2.354v11.335
		c0.754,2.861,4.861,13.509,8.49,22.918c3.153,8.176,6.133,15.896,7.055,18.82c1.986,6.286,0.633,8.529,0.17,9.068
		C70.925,87.167,53.688,87.529,50.276,87.529z M49.87,85.527l0.405,0.002l0,0c1.991,0,19.564-0.188,24.101-6.697l0.11-0.134l0,0
		c-0.008,0,1.154-1.638-0.582-7.14C73,68.693,70.032,61.001,66.891,52.857c-3.883-10.065-7.896-20.474-8.596-23.271l-0.029-0.242
		l0.022-11.798c0.017-0.074,0.407-1.805,1.262-3.077H40.449c0.853,1.271,1.245,3.001,1.262,3.076l0.024,0.218l-0.03,11.823
		c-0.699,2.795-4.71,13.195-8.59,23.252c-3.145,8.153-6.115,15.853-7.02,18.72c-1.751,5.547-0.557,7.168-0.544,7.184l0.072,0.091
		c4.537,6.51,21.914,6.697,23.88,6.697L49.87,85.527z"/>
	<path d="M64.532,53.896c-1.38-0.17-2.869-0.394-4.476-0.666c-2.722-0.463-6.846,0.705-10.057,2.234
		c-4.693,2.235-5.587,1.788-12.291-0.895c-0.745-0.297-1.491-0.525-2.23-0.702c-2.979,7.724-6.051,15.688-6.928,18.466
		c-1.028,3.256-0.849,4.717-0.771,5.087c1.951,2.677,9.54,5.533,21.723,5.533c0.198,0,0.311-0.001,0.324-0.002
		c0,0,0.448,0.002,0.449,0.002c12.332,0,19.992-2.856,21.945-5.533c0.078-0.369,0.256-1.83-0.771-5.087
		C70.572,69.561,67.508,61.613,64.532,53.896z"/>
</g>
</svg>
