<?xml version="1.0" encoding="UTF-8"?>
<svg xmlns="http://www.w3.org/2000/svg" xmlns:xlink="http://www.w3.org/1999/xlink" width="500pt" height="500pt" viewBox="-5 -6 500 500" version="1.1">
<g id="m-logo">
  <!-- M -->
  <path style="stroke:none;fill-rule:evenodd;fill:#CCCCCC;fill-opacity:1;" d="M 396.457031 148.148438 C 396.722656 151.410156 393.015625 152.011719 390.75 152.339844 C 382.585938 152.914063 374.378906 152.375 366.199219 152.398438 C 366.605469 163.925781 367.75 175.441406 367.425781 186.992188 C 367.234375 203.960938 367.386719 220.933594 366.527344 237.886719 C 367.851563 260.246094 366.773438 282.660156 367.121094 305.046875 C 375.804688 305.363281 384.523438 304.449219 393.195313 305.3125 C 395.382813 305.464844 397.214844 307.175781 397.671875 309.441406 C 399.785156 317.929688 400.242188 326.914063 398.570313 335.539063 C 389.46875 336.347656 380.320313 336.609375 371.265625 337.972656 C 364.304688 338.683594 357.304688 338.011719 350.332031 338.449219 C 346 338.796875 341.699219 339.539063 337.367188 339.875 C 330.011719 340.457031 322.648438 339.375 315.320313 340.242188 C 311.46875 340.433594 307.574219 341.070313 303.757813 340.460938 C 301.042969 338.386719 301.589844 334.324219 301.117188 331.222656 C 300.890625 325.136719 298.839844 319.253906 299.121094 313.144531 C 299.082031 311.570313 300.753906 310.929688 301.738281 310.109375 C 305.878906 307.328125 310.855469 307.003906 315.578125 306.484375 C 321.441406 305.976563 327.285156 305.257813 333.175781 305.113281 C 332.890625 294.324219 333.003906 283.535156 333.226563 272.734375 C 333.421875 261.753906 334.941406 250.75 333.839844 239.773438 C 332.8125 230.222656 334.292969 220.6875 334.4375 211.140625 C 334.683594 197.601563 334.621094 184.070313 334.667969 170.539063 C 326.167969 178.21875 317.113281 185.289063 309.3125 193.863281 C 304.335938 199.183594 298.617188 203.667969 294.007813 209.40625 C 287.007813 217.175781 279.722656 224.730469 271.734375 231.371094 C 265.738281 237.039063 260.390625 243.453125 255.019531 249.808594 C 253.589844 251.589844 251.421875 252.453125 249.261719 252.347656 C 247.058594 251.691406 245.402344 249.882813 243.664063 248.398438 C 240.46875 245.347656 236.992188 242.6875 233.515625 240.03125 C 230.050781 237.402344 227.484375 233.707031 224.472656 230.550781 C 217.515625 223.78125 210.664063 216.863281 204.273438 209.457031 C 199.976563 204.710938 194.59375 201.390625 190.082031 196.910156 C 186.265625 193.171875 182.878906 188.914063 178.722656 185.59375 C 172.199219 180.597656 167.175781 173.574219 160.085938 169.410156 C 159.9375 190.082031 157.949219 210.75 159.21875 231.410156 C 159.792969 241.730469 158.773438 252.082031 159.496094 262.390625 C 159.957031 275.121094 161.085938 287.875 159.589844 300.613281 C 170.042969 300.375 180.453125 301.347656 190.867188 301.898438 C 192.601563 302.015625 194.355469 302.265625 195.933594 303.105469 C 196.90625 312.582031 196.132813 322.207031 196.046875 331.746094 C 190.554688 332.882813 185.066406 334.570313 179.433594 334.074219 C 168.714844 333.421875 158.097656 335.984375 147.390625 336.023438 C 137.148438 336.109375 126.914063 335.984375 116.675781 336.5 C 109.730469 336.894531 102.605469 338.292969 95.773438 336.648438 C 93.765625 332.453125 94.273438 327.453125 93.84375 322.855469 C 93.746094 317.34375 92.101563 311.433594 94.578125 306.195313 C 95.589844 303.625 98.722656 305.046875 100.699219 304.886719 C 109.925781 306.542969 119.335938 305.011719 128.515625 303.386719 C 128.972656 294.625 129.507813 285.855469 128.804688 277.113281 C 127.792969 263.179688 128.609375 249.164063 127.679688 235.214844 C 127.035156 224.359375 129.082031 213.601563 128.941406 202.757813 C 129.007813 195.1875 129.492188 187.574219 128.429688 180.066406 C 127.136719 170.824219 127.828125 161.472656 127.941406 152.167969 C 118.164063 148.644531 107.722656 151.628906 97.777344 149.34375 C 95.742188 148.4375 93.953125 147 92.113281 145.707031 C 92.210938 137.914063 92.03125 130.105469 92.652344 122.335938 C 93.128906 118.761719 94.140625 113.9375 97.933594 113.132813 C 105.546875 111.800781 113.296875 112.605469 120.96875 112.519531 C 131.957031 112.878906 143.097656 112.390625 153.953125 114.261719 C 163.773438 121.203125 173.566406 128.542969 181.546875 137.976563 C 187.160156 144.445313 193.035156 150.621094 199.074219 156.609375 C 213.125 171.449219 226.28125 187.285156 241.058594 201.300781 C 243.933594 203.75 245.976563 207.464844 249.398438 209.070313 C 255.261719 204.378906 259.285156 197.582031 264.914063 192.621094 C 269.273438 188.777344 272.746094 183.953125 276.71875 179.679688 C 283.699219 172.246094 290.722656 164.871094 297.445313 157.183594 C 301.539063 152.035156 306.65625 148.039063 311.179688 143.363281 C 317.425781 136.972656 323.4375 130.296875 328.613281 122.878906 C 331.898438 118.457031 335.53125 113 341.453125 113.210938 C 354.191406 112.804688 366.96875 113.242188 379.714844 113.769531 C 383.894531 113.84375 388.148438 112.933594 392.296875 113.894531 C 395.542969 115.851563 395.613281 120.316406 395.914063 123.789063 C 396.199219 131.90625 396.628906 140.03125 396.457031 148.148438 Z "/>
  <!-- Magenta? -->
  <path style="stroke:none;fill-rule:evenodd;fill:#ED00AC;fill-opacity:1;" d="M 388.609375 425.0625 C 396.691406 424.410156 404.828125 424.175781 412.902344 424.984375 C 425.523438 426.265625 438.230469 425.445313 450.878906 426.109375 C 462.019531 426.710938 473.367188 425.230469 484.335938 427.800781 C 486.40625 436.820313 484.925781 446.105469 484.976563 455.246094 C 484.550781 463.472656 484.96875 471.730469 484.285156 479.9375 C 484.300781 481.828125 482.5625 482.960938 480.832031 483.03125 C 474.535156 483.800781 468.203125 482.867188 461.890625 482.917969 C 450.183594 482.574219 438.53125 483.871094 426.890625 484.867188 C 418.816406 485.578125 410.902344 482.859375 402.835938 483.699219 C 398.605469 483.785156 394.21875 485.1875 390.085938 483.746094 C 389.082031 483.367188 388.078125 482.980469 387.085938 482.582031 C 387.734375 470.574219 388.8125 458.539063 388.105469 446.515625 C 387.808594 439.359375 387.875 432.179688 388.609375 425.0625 "/>
  <!-- Yellow? -->
  <path style="stroke:none;fill-rule:evenodd;fill:#CCCC00;fill-opacity:1;" d="M 359.523438 426.304688 C 369.171875 425.171875 378.910156 425.410156 388.609375 425.0625 C 387.875 432.179688 387.808594 439.359375 388.105469 446.515625 C 388.8125 458.539063 387.734375 470.574219 387.085938 482.582031 C 388.078125 482.980469 389.082031 483.367188 390.085938 483.746094 C 377.695313 484.789063 365.226563 484.59375 352.808594 485.414063 C 337.515625 484.398438 322.1875 483.640625 306.84375 484.132813 C 294.554688 484.640625 282.167969 483.703125 269.980469 485.699219 C 266.109375 486.433594 262.164063 485.984375 258.371094 485.097656 C 255.589844 477.128906 254.425781 468.664063 254.625 460.238281 C 254.863281 452.230469 252.832031 444.285156 253.710938 436.296875 C 253.828125 432.578125 258.214844 432.054688 260.984375 431.113281 C 267.925781 431.003906 274.882813 431.265625 281.816406 430.566406 C 292.886719 430.132813 303.707031 427.179688 314.835938 427.453125 C 329.71875 426.304688 344.6875 428.136719 359.523438 426.304688 "/>
  <!-- Green? -->
  <path style="stroke:none;fill-rule:evenodd;fill:#00AC64;fill-opacity:1;" d="M 188.96875 430.109375 C 200.890625 429.105469 212.84375 430.023438 224.785156 430.0625 C 236.867188 430.035156 248.890625 431.742188 260.984375 431.113281 C 258.214844 432.054688 253.828125 432.578125 253.710938 436.296875 C 252.832031 444.285156 254.863281 452.230469 254.625 460.238281 C 254.425781 468.664063 255.589844 477.128906 258.371094 485.097656 C 246.566406 485.292969 234.742188 485.886719 222.953125 485.300781 C 211.648438 483.640625 200.164063 484.351563 188.886719 482.523438 C 172.082031 482.050781 155.183594 481.265625 138.453125 483.402344 C 133.605469 475.160156 133.363281 465.421875 133.398438 456.140625 C 133.210938 447.886719 132.894531 439.652344 132.898438 431.398438 C 151.589844 431.527344 170.320313 431.621094 188.96875 430.109375 "/>
  <!-- Blue? -->
  <path style="stroke:none;fill-rule:evenodd;fill:#00ACED;fill-opacity:1;" d="M 93.75 432.035156 C 106.800781 432.203125 119.863281 432.132813 132.898438 431.398438 C 132.894531 439.652344 133.210938 447.886719 133.398438 456.140625 C 133.363281 465.421875 133.605469 475.160156 138.453125 483.402344 C 129.214844 483.621094 119.949219 482.839844 110.773438 484.160156 C 97.46875 484.367188 84.089844 484.246094 70.84375 482.753906 C 64.421875 482.222656 57.953125 482.539063 51.558594 483.308594 C 43.019531 484.390625 34.410156 483.769531 25.84375 484.027344 C 19.914063 484.015625 13.894531 483.871094 8.109375 482.46875 C 4.800781 481.679688 4.339844 477.683594 4.082031 474.878906 C 3.832031 466.851563 2.539063 458.867188 3.03125 450.835938 C 3.347656 444.691406 3.214844 438.527344 3.410156 432.371094 C 15.839844 432.707031 28.304688 432.355469 40.683594 433.640625 C 48.671875 434.417969 56.660156 433.417969 64.636719 433.207031 C 74.34375 432.90625 84.03125 431.90625 93.75 432.035156 "/>
</g>
</svg>
