<?xml version="1.0" encoding="utf-8"?>
<!-- Generator: Adobe Illustrator 16.0.0, SVG Export Plug-In . SVG Version: 6.00 Build 0)  -->
<!DOCTYPE svg PUBLIC "-//W3C//DTD SVG 1.1//EN" "http://www.w3.org/Graphics/SVG/1.1/DTD/svg11.dtd">
<svg version="1.1" xmlns="http://www.w3.org/2000/svg" x="0px" y="0px" width="720px" height="720px" viewBox="-72 -72 720 720">
	<g id="icon-portfolio">
		<path d="M528,333.6v138.398c0,11.046-8.952,20.002-19.995,20.002H67.995C56.949,492,48,483.045,48,471.998V333.6l195,31.2v12.205C243,390.811,254.194,402,267.995,402h40.01C321.81,402,333,390.807,333,377.005V364.8L528,333.6z"/>
		<path d="M325.6,157l-6.307,157.688c8.132,4.125,13.707,12.564,13.707,22.308V349.8L538,317V157H388v-33c0-22.091-17.902-40-39.992-40H227.992C205.905,84,188,101.907,188,124v33H38v160l205,32.8v-12.805c0-9.74,5.574-18.183,13.708-22.308L250.4,157H218v-33.003c0-5.525,4.477-9.997,9.998-9.997h120.004c5.52,0,9.998,4.476,9.998,9.997V157H325.6z"/>
		<polygon points="264,147 312,147 305.4,312 270.6,312"/>
		<path d="M268.009,327c-5.528,0-10.009,4.484-10.009,10.009v39.982c0,5.526,4.485,10.009,10.009,10.009h39.982c5.526,0,10.009-4.484,10.009-10.009v-39.982c0-5.526-4.485-10.009-10.009-10.009H268.009z"/>
	</g>
</svg>
